<svg width="171" height="139" viewBox="0 0 171 139" fill="none" xmlns="http://www.w3.org/2000/svg">
    <g filter="url(#filter0_d_3_18)">
        <path d="M95.0633 99.5085C95.0633 100.073 94.8624 100.556 94.4607 100.958C94.0738 101.344 93.5976 101.537 93.0321 101.537C92.4666 101.537 91.983 101.344 91.5812 100.958C91.1943 100.556 91.0009 100.073 91.0009 99.5085C91.0009 99.226 91.0529 98.9656 91.157 98.7279C91.2613 98.4751 91.4026 98.2594 91.5812 98.081C91.7746 97.8882 91.9904 97.7393 92.2285 97.6353C92.4815 97.5313 92.7493 97.4789 93.0321 97.4789C93.3148 97.4789 93.5752 97.5313 93.8133 97.6353C94.0663 97.7393 94.2821 97.8882 94.4607 98.081C94.6541 98.2594 94.8029 98.4751 94.9071 98.7279C95.0113 98.9656 95.0633 99.226 95.0633 99.5085ZM91.4472 112.575C91.4472 110.435 91.5812 108.301 91.849 106.176C91.8788 105.967 91.9681 105.789 92.1169 105.641C92.2806 105.476 92.4889 105.395 92.7419 105.395C92.9651 105.395 93.1511 105.484 93.2999 105.663C93.4488 105.826 93.5232 106.019 93.5232 106.243C93.5232 106.331 93.5008 106.6 93.4562 107.045C93.4264 107.491 93.3818 108.026 93.3223 108.65C93.2776 109.26 93.233 109.914 93.1884 110.613C93.1586 111.296 93.1437 111.928 93.1437 112.508C93.1437 113.296 93.2181 113.935 93.3669 114.425C93.5306 114.902 93.7315 115.273 93.9696 115.541C94.2225 115.808 94.483 115.987 94.7509 116.076C95.0335 116.165 95.3015 116.21 95.5544 116.21C95.971 116.21 96.4028 116.061 96.8489 115.763C97.2959 115.466 97.7496 115.05 98.211 114.515C98.6868 113.98 99.1634 113.34 99.6392 112.597C100.116 111.839 100.584 111 101.045 110.078C101.12 109.929 101.224 109.817 101.358 109.743C101.492 109.654 101.64 109.609 101.805 109.609C102.043 109.609 102.236 109.699 102.385 109.877C102.549 110.055 102.63 110.249 102.63 110.457C102.63 110.605 102.6 110.732 102.541 110.836C102.363 111.178 102.139 111.594 101.872 112.085C101.603 112.575 101.298 113.081 100.956 113.601C100.614 114.121 100.234 114.641 99.8178 115.162C99.4157 115.667 98.9848 116.128 98.5234 116.544C98.062 116.946 97.5786 117.273 97.0724 117.525C96.5661 117.778 96.0531 117.905 95.5321 117.905C94.8624 117.905 94.2747 117.763 93.7687 117.481C93.2628 117.198 92.8312 116.819 92.474 116.343C92.1318 115.867 91.8714 115.31 91.6928 114.671C91.5291 114.017 91.4472 113.318 91.4472 112.575ZM93.8133 99.5085C93.8133 99.3005 93.7315 99.122 93.5678 98.9732C93.419 98.81 93.2404 98.7279 93.0321 98.7279C92.8238 98.7279 92.6452 98.81 92.4964 98.9732C92.3476 99.122 92.2731 99.3005 92.2731 99.5085C92.2731 99.7165 92.3476 99.895 92.4964 100.044C92.6452 100.192 92.8238 100.266 93.0321 100.266C93.2404 100.266 93.419 100.192 93.5678 100.044C93.7315 99.895 93.8133 99.7165 93.8133 99.5085ZM115.621 110.836C115.532 111 115.376 111.296 115.152 111.728C114.944 112.159 114.654 112.65 114.282 113.199C113.925 113.735 113.493 114.292 112.988 114.872C112.481 115.451 111.901 115.987 111.246 116.477C110.592 116.953 109.855 117.347 109.037 117.659C108.233 117.971 107.355 118.127 106.402 118.127C105.554 118.127 104.803 117.971 104.148 117.659C103.494 117.362 102.936 116.938 102.474 116.388C102.013 115.823 101.663 115.162 101.425 114.403C101.187 113.646 101.068 112.805 101.068 111.884C101.068 110.992 101.194 110.159 101.447 109.386C101.701 108.599 102.043 107.915 102.474 107.335C102.92 106.755 103.434 106.302 104.014 105.975C104.595 105.633 105.212 105.462 105.867 105.462C106.358 105.462 106.804 105.551 107.207 105.729C107.608 105.893 107.943 106.116 108.211 106.398C108.493 106.681 108.709 106.993 108.858 107.335C109.022 107.677 109.104 108.019 109.104 108.361C109.104 108.687 109.059 108.993 108.97 109.275C108.895 109.558 108.791 109.81 108.657 110.033C108.538 110.241 108.397 110.412 108.233 110.546C108.069 110.665 107.906 110.724 107.742 110.724C107.489 110.724 107.28 110.643 107.117 110.479C106.968 110.315 106.893 110.115 106.893 109.877C106.893 109.758 106.916 109.654 106.961 109.564C107.02 109.476 107.08 109.386 107.139 109.297C107.213 109.193 107.273 109.074 107.317 108.94C107.378 108.792 107.407 108.606 107.407 108.383C107.407 108.071 107.258 107.789 106.961 107.536C106.678 107.283 106.313 107.157 105.867 107.157C105.45 107.157 105.049 107.283 104.662 107.536C104.289 107.789 103.963 108.13 103.68 108.561C103.397 108.978 103.166 109.476 102.987 110.055C102.824 110.62 102.742 111.222 102.742 111.861C102.742 112.471 102.816 113.05 102.965 113.601C103.114 114.151 103.337 114.641 103.635 115.072C103.932 115.488 104.305 115.823 104.751 116.076C105.212 116.328 105.756 116.455 106.38 116.455C107.184 116.455 107.928 116.314 108.613 116.031C109.297 115.734 109.922 115.362 110.488 114.916C111.053 114.47 111.551 113.987 111.983 113.467C112.415 112.932 112.779 112.434 113.077 111.973C113.389 111.498 113.628 111.088 113.791 110.747C113.97 110.39 114.074 110.167 114.103 110.078C114.163 109.929 114.26 109.817 114.394 109.743C114.543 109.654 114.699 109.609 114.863 109.609C115.115 109.609 115.317 109.699 115.465 109.877C115.629 110.055 115.71 110.256 115.71 110.479C115.71 110.568 115.681 110.688 115.621 110.836ZM115.867 115.117C116.105 114.611 116.38 114.069 116.693 113.489C117.006 112.895 117.34 112.293 117.697 111.683C118.054 111.059 118.434 110.441 118.836 109.833C119.237 109.223 119.654 108.65 120.085 108.115C120.517 107.595 120.949 107.224 121.381 107C121.827 106.763 122.243 106.643 122.63 106.643C123.017 106.643 123.352 106.726 123.635 106.889C123.932 107.038 124.171 107.246 124.349 107.514C124.542 107.781 124.684 108.093 124.774 108.45C124.878 108.807 124.929 109.193 124.929 109.609C124.929 109.951 124.892 110.412 124.818 110.992C124.758 111.557 124.729 112.151 124.729 112.776C124.729 113.132 124.743 113.489 124.774 113.846C124.818 114.188 124.884 114.5 124.974 114.782C125.078 115.05 125.227 115.273 125.42 115.451C125.614 115.615 125.867 115.696 126.18 115.696C126.537 115.696 126.893 115.6 127.251 115.407C127.608 115.198 127.957 114.931 128.3 114.604C128.642 114.262 128.97 113.891 129.282 113.489C129.595 113.073 129.877 112.664 130.131 112.263C130.383 111.847 130.606 111.453 130.8 111.081C130.993 110.694 131.15 110.375 131.268 110.123C131.417 109.78 131.678 109.609 132.05 109.609C132.303 109.609 132.503 109.699 132.652 109.877C132.801 110.055 132.876 110.249 132.876 110.457C132.876 110.576 132.853 110.688 132.809 110.792C132.749 110.91 132.63 111.155 132.452 111.527C132.288 111.899 132.057 112.33 131.759 112.82C131.477 113.311 131.142 113.823 130.755 114.359C130.368 114.894 129.937 115.392 129.461 115.853C129 116.299 128.493 116.671 127.943 116.968C127.407 117.25 126.842 117.391 126.247 117.391C125.562 117.391 125.011 117.25 124.595 116.968C124.178 116.671 123.851 116.299 123.612 115.853C123.389 115.407 123.233 114.909 123.144 114.359C123.069 113.809 123.032 113.274 123.032 112.754C123.032 112.485 123.04 112.203 123.054 111.906C123.084 111.594 123.114 111.289 123.144 110.992C123.174 110.694 123.196 110.419 123.211 110.167C123.24 109.899 123.256 109.676 123.256 109.498C123.256 109.037 123.188 108.725 123.054 108.561C122.936 108.397 122.794 108.316 122.63 108.316C122.392 108.316 122.117 108.457 121.805 108.74C121.507 109.007 121.187 109.364 120.845 109.81C120.517 110.256 120.183 110.761 119.84 111.326C119.513 111.877 119.193 112.426 118.881 112.977C118.567 113.526 118.285 114.054 118.032 114.56C117.779 115.05 117.571 115.459 117.407 115.786C117.094 116.41 116.774 116.826 116.448 117.034C116.134 117.258 115.852 117.369 115.599 117.369C115.138 117.369 114.781 117.191 114.528 116.834C114.29 116.463 114.17 116.016 114.17 115.496V114.091C114.17 111.282 114.17 108.606 114.17 106.064C114.186 103.507 114.223 101.136 114.282 98.9512C114.357 96.7507 114.468 94.7659 114.617 92.9976C114.781 91.2132 115.019 89.6969 115.331 88.4487C115.643 87.1844 116.038 86.2111 116.515 85.5273C117.006 84.8435 117.615 84.5016 118.345 84.5016C118.97 84.5016 119.498 84.6726 119.93 85.0145C120.361 85.3564 120.711 85.8247 120.978 86.4192C121.247 86.9992 121.44 87.6825 121.559 88.4707C121.678 89.2436 121.738 90.0614 121.738 90.9232C121.738 92.6779 121.574 94.4023 121.247 96.097C120.934 97.7765 120.509 99.4189 119.974 101.025C119.439 102.63 118.813 104.199 118.099 105.729C117.385 107.246 116.633 108.725 115.845 110.167C115.845 110.435 115.845 110.754 115.845 111.126C115.845 111.498 115.845 111.869 115.845 112.24C115.845 112.612 115.845 112.962 115.845 113.289C115.845 113.615 115.845 113.876 115.845 114.069L115.867 115.117ZM115.867 106.889C116.492 105.521 117.057 104.191 117.563 102.898C118.084 101.59 118.523 100.289 118.881 98.9952C119.252 97.7021 119.543 96.3939 119.751 95.0712C119.959 93.7334 120.063 92.3431 120.063 90.9012C120.063 90.6635 120.048 90.2847 120.018 89.7637C120.004 89.2436 119.937 88.7159 119.818 88.1806C119.714 87.6453 119.543 87.1777 119.305 86.776C119.081 86.3747 118.761 86.174 118.345 86.174C118.017 86.174 117.734 86.397 117.497 86.8428C117.259 87.2741 117.05 87.8686 116.872 88.6271C116.693 89.3696 116.544 90.2399 116.425 91.2361C116.306 92.2314 116.209 93.2868 116.134 94.4023C116.061 95.5169 116.001 96.6619 115.956 97.8357C115.926 99.0104 115.904 100.155 115.889 101.27C115.875 102.37 115.867 103.403 115.867 104.369C115.867 105.335 115.867 106.176 115.867 106.889ZM133.97 114.56C134.282 114.99 134.684 115.34 135.175 115.608C135.666 115.861 136.269 115.987 136.983 115.987C137.712 115.987 138.374 115.816 138.97 115.474C139.565 115.117 140.108 114.656 140.599 114.091C141.09 113.526 141.53 112.895 141.916 112.196C142.303 111.498 142.653 110.798 142.965 110.1C143.04 109.937 143.144 109.817 143.278 109.743C143.411 109.654 143.56 109.609 143.724 109.609C143.977 109.609 144.178 109.699 144.327 109.877C144.491 110.055 144.572 110.249 144.572 110.457C144.572 110.531 144.564 110.598 144.55 110.657C144.535 110.702 144.513 110.754 144.483 110.814C143.456 113.073 142.333 114.775 141.112 115.92C139.907 117.065 138.538 117.652 137.006 117.681C136.023 117.681 135.175 117.488 134.461 117.101C133.746 116.73 133.159 116.247 132.697 115.653C132.236 115.043 131.894 114.359 131.67 113.601C131.447 112.842 131.335 112.085 131.335 111.326C131.335 110.568 131.425 109.87 131.604 109.23C131.797 108.591 132.065 108.034 132.407 107.558C132.764 107.082 133.181 106.71 133.657 106.443C134.148 106.176 134.684 106.041 135.264 106.041C135.606 106.041 135.941 106.116 136.269 106.265C136.611 106.398 136.916 106.6 137.184 106.867C137.452 107.12 137.668 107.432 137.831 107.803C137.995 108.175 138.076 108.599 138.076 109.074C138.076 109.684 137.972 110.256 137.764 110.792C137.556 111.326 137.265 111.824 136.894 112.285C136.537 112.746 136.105 113.17 135.599 113.556C135.093 113.943 134.55 114.277 133.97 114.56ZM133.3 113.11C133.761 112.917 134.178 112.671 134.55 112.375C134.937 112.077 135.264 111.75 135.532 111.393C135.8 111.037 136.008 110.665 136.157 110.278C136.306 109.877 136.38 109.476 136.38 109.074C136.38 108.628 136.269 108.293 136.046 108.071C135.822 107.833 135.562 107.714 135.264 107.714C134.862 107.714 134.52 107.826 134.237 108.048C133.955 108.271 133.724 108.561 133.546 108.918C133.367 109.275 133.233 109.676 133.143 110.123C133.069 110.553 133.032 110.984 133.032 111.416C133.032 111.683 133.055 111.965 133.099 112.263C133.159 112.56 133.226 112.842 133.3 113.11ZM155.688 110.836C155.525 111.178 155.317 111.586 155.063 112.062C154.826 112.523 154.55 113.006 154.237 113.511C153.925 114.017 153.575 114.523 153.188 115.028C152.801 115.518 152.377 115.965 151.916 116.365C151.47 116.752 150.986 117.065 150.465 117.302C149.96 117.555 149.416 117.681 148.835 117.681C147.943 117.681 147.176 117.406 146.537 116.856C145.897 116.306 145.353 115.585 144.907 114.694C144.46 113.801 144.096 112.791 143.814 111.661C143.545 110.516 143.337 109.356 143.188 108.183C143.04 106.993 142.936 105.841 142.876 104.726C142.832 103.611 142.809 102.622 142.809 101.761C142.809 100.511 142.846 99.2184 142.92 97.8806C143.01 96.5427 143.144 95.2344 143.323 93.9558C143.501 92.6779 143.724 91.4661 143.992 90.321C144.275 89.1768 144.602 88.173 144.974 87.3113C145.361 86.449 145.8 85.7652 146.291 85.2597C146.782 84.7544 147.34 84.5016 147.965 84.5016C148.456 84.5016 148.895 84.6206 149.282 84.8584C149.684 85.0814 150.019 85.453 150.286 85.9733C150.555 86.4936 150.763 87.17 150.912 88.0022C151.06 88.8352 151.135 89.8534 151.135 91.0576C151.135 92.5435 150.979 94.0826 150.666 95.6733C150.353 97.2488 149.929 98.8396 149.394 100.445C148.858 102.051 148.226 103.656 147.496 105.261C146.767 106.852 145.986 108.405 145.153 109.921C145.524 111.81 146.023 113.296 146.648 114.381C147.273 115.451 148.024 115.987 148.902 115.987C149.498 115.987 150.07 115.757 150.622 115.296C151.172 114.82 151.678 114.262 152.139 113.623C152.601 112.984 153.002 112.337 153.345 111.683C153.701 111.014 153.977 110.479 154.17 110.078C154.245 109.929 154.349 109.817 154.483 109.743C154.617 109.654 154.766 109.609 154.93 109.609C155.182 109.609 155.383 109.699 155.532 109.877C155.696 110.055 155.778 110.256 155.778 110.479C155.778 110.568 155.748 110.688 155.688 110.836ZM144.505 101.872C144.505 102.824 144.527 103.738 144.572 104.615C144.617 105.492 144.676 106.331 144.751 107.134C145.375 105.931 145.971 104.652 146.537 103.299C147.102 101.931 147.6 100.556 148.032 99.1736C148.464 97.7765 148.806 96.3939 149.059 95.0264C149.326 93.6437 149.461 92.3287 149.461 91.0796C149.461 89.3257 149.32 88.069 149.037 87.3113C148.754 86.553 148.374 86.174 147.898 86.174C147.586 86.174 147.28 86.3896 146.983 86.8208C146.7 87.2521 146.432 87.839 146.18 88.5823C145.927 89.3257 145.695 90.2026 145.487 91.2132C145.279 92.2238 145.1 93.3097 144.951 94.4691C144.818 95.6285 144.706 96.8395 144.617 98.1038C144.542 99.3673 144.505 100.623 144.505 101.872Z"
              fill="white"/>
        <path d="M80.9082 77.5595C80.0669 78.7908 79.1277 80.2665 78.0908 81.9864C77.0537 83.7064 75.9483 85.6316 74.7744 87.762C73.7765 89.5404 72.7884 91.4365 71.8101 93.45C70.8514 95.4433 69.9319 97.4273 69.0514 99.4011C68.1709 101.355 67.359 103.242 66.6155 105.059C65.8719 106.858 65.2263 108.451 64.6785 109.838C64.1306 111.207 63.7002 112.311 63.3871 113.152C63.0741 113.972 62.9175 114.392 62.9175 114.412C62.7219 114.901 62.3697 115.145 61.861 115.145C61.6066 115.145 61.3816 115.067 61.186 114.911C60.9903 114.735 60.8632 114.519 60.8044 114.266C60.8044 114.246 60.7066 113.835 60.511 113.034C60.3349 112.213 60.0903 111.128 59.7773 109.78C59.4642 108.412 59.1022 106.848 58.6913 105.089C58.3 103.311 57.8794 101.464 57.4294 99.5482C56.999 97.6133 56.5587 95.6581 56.1087 93.6843C55.6587 91.7105 55.238 89.8339 54.8467 88.0554C53.5358 91.7494 52.2151 95.023 50.8847 97.8772C49.5738 100.711 48.2237 103.183 46.8346 105.295C45.4454 107.386 44.0073 109.145 42.5203 110.572C41.0529 111.998 39.5072 113.152 37.8833 114.031C36.2789 114.891 34.5864 115.507 32.8059 115.878C31.045 116.25 29.1765 116.435 27.2004 116.435C26.183 116.435 25.0971 116.318 23.9427 116.083C22.7883 115.868 21.6437 115.526 20.5089 115.057C19.3741 114.588 18.2882 114.002 17.2512 113.298C16.2142 112.595 15.2946 111.764 14.4925 110.806C13.6903 109.829 13.0544 108.734 12.5848 107.522C12.1152 106.291 11.8804 104.923 11.8804 103.418C11.8804 101.835 12.213 100.388 12.8783 99.0789C13.5435 97.7495 14.4435 96.6162 15.5783 95.6775C16.7132 94.7202 18.0241 93.9777 19.511 93.45C21.0176 92.9223 22.6024 92.6585 24.2655 92.6585C25.4786 92.6585 26.5645 92.7659 27.5232 92.9807C28.5015 93.176 29.3624 93.4306 30.1058 93.7426C30.8494 94.0555 31.4852 94.398 32.0136 94.7693C32.5418 95.1405 32.982 95.4822 33.3342 95.7951C33.6864 96.108 33.9408 96.3811 34.0973 96.6162C34.2538 96.831 34.3419 96.9384 34.3614 96.9384C34.4788 97.1532 34.5375 97.3587 34.5375 97.5541C34.5375 97.8281 34.4299 98.0818 34.2147 98.3169C34.019 98.5512 33.7549 98.6687 33.4222 98.6687C33.031 98.6687 32.7179 98.5021 32.4831 98.1698C32.4635 98.1503 32.307 97.9744 32.0136 97.6421C31.7201 97.2902 31.2407 96.9097 30.5754 96.4987C29.9102 96.0885 29.0493 95.7173 27.9928 95.3849C26.9558 95.0526 25.684 94.886 24.1775 94.886C22.8079 94.886 21.5067 95.1016 20.2741 95.5312C19.061 95.9414 17.9947 96.5283 17.0751 97.2902C16.1751 98.0531 15.4512 98.9613 14.9033 100.017C14.3751 101.053 14.1109 102.196 14.1109 103.447C14.1109 104.679 14.3164 105.802 14.7272 106.819C15.1381 107.835 15.686 108.744 16.3708 109.545C17.0556 110.347 17.848 111.04 18.748 111.627C19.648 112.213 20.5872 112.702 21.5655 113.093C22.5438 113.464 23.522 113.747 24.5003 113.943C25.4982 114.119 26.4373 114.207 27.3178 114.207C28.8048 114.207 30.2526 114.1 31.6613 113.884C33.0896 113.65 34.4886 113.219 35.8582 112.595C37.2473 111.969 38.6072 111.109 39.9376 110.014C41.2681 108.92 42.5888 107.493 43.8997 105.734C45.2106 103.974 46.5019 101.854 47.7737 99.3723C49.0651 96.8894 50.3563 93.9583 51.6477 90.5764C52.039 89.5599 52.4206 88.4656 52.7923 87.2926C53.164 86.1203 53.5456 84.9378 53.9369 83.7455C53.6043 82.0255 53.3597 80.5596 53.2032 79.3478C53.0663 78.136 52.9978 77.1294 52.9978 76.3281C52.9978 75.4681 53.0663 74.784 53.2032 74.2758C53.3401 73.7676 53.5162 73.3865 53.7315 73.1324C53.9467 72.8588 54.1814 72.6927 54.4358 72.634C54.6901 72.5558 54.9347 72.5168 55.1695 72.5168C55.3652 72.5168 55.5804 72.5558 55.8152 72.634C56.0695 72.7122 56.2945 72.8881 56.4903 73.1618C56.7055 73.4158 56.8815 73.7969 57.0185 74.3051C57.1555 74.8133 57.224 75.4974 57.224 76.3574C57.224 77.2955 57.1358 78.3804 56.9598 79.6117C56.7837 80.8431 56.5196 82.2015 56.1674 83.6869C56.4218 84.8791 56.7152 86.2082 57.0478 87.674C57.3804 89.1404 57.7229 90.6644 58.075 92.2475C58.4272 93.8111 58.7892 95.4137 59.1609 97.056C59.5327 98.6975 59.8946 100.3 60.2469 101.864C60.599 103.427 60.9317 104.923 61.2447 106.35C61.5773 107.777 61.8806 109.066 62.1545 110.22C62.6828 108.89 63.3284 107.288 64.0915 105.411C64.8545 103.515 65.7057 101.512 66.6448 99.4011C67.5839 97.2708 68.572 95.1109 69.609 92.9223C70.6656 90.7134 71.7416 88.6322 72.8374 86.677C74.3831 83.9019 75.8016 81.5271 77.0929 79.5531C78.3843 77.5595 79.4994 75.9176 80.4386 74.6277C81.3778 73.3377 82.1115 72.3896 82.6398 71.7838C83.1876 71.1583 83.4811 70.8163 83.5203 70.7577C83.7355 70.5427 83.9996 70.4351 84.3127 70.4351C84.6453 70.4351 84.9094 70.5524 85.105 70.787C85.3203 71.002 85.4279 71.256 85.4279 71.5492C85.4279 71.686 85.3985 71.8229 85.3399 71.9597C85.3399 71.9792 85.2225 72.2724 84.9876 72.8392C84.7724 73.3865 84.4887 74.1487 84.1366 75.126C83.804 76.0837 83.4321 77.2174 83.0213 78.5269C82.6104 79.8169 82.2093 81.2144 81.818 82.7194C81.4267 84.2048 81.0746 85.7685 80.7615 87.4102C80.468 89.0322 80.2528 90.655 80.1158 92.2771C80.0571 93.0196 80.0082 93.8018 79.969 94.6221C79.9299 95.4238 79.9104 96.2348 79.9104 97.056C79.9104 98.3457 79.969 99.6455 80.0864 100.955C80.2039 102.265 80.3995 103.525 80.6735 104.737C80.9473 105.949 81.3191 107.093 81.7886 108.167C82.2582 109.223 82.8354 110.151 83.5203 110.952C84.2051 111.754 85.017 112.399 85.9562 112.888C86.9149 113.376 88.0203 113.64 89.2726 113.68C89.5856 113.699 89.8302 113.835 90.0063 114.09C90.2019 114.324 90.2998 114.578 90.2998 114.852C90.2998 115.126 90.1921 115.37 89.9769 115.585C89.7617 115.8 89.5073 115.907 89.2138 115.907C88.9008 115.907 88.5878 115.878 88.2747 115.819C86.866 115.624 85.6236 115.223 84.5474 114.617C83.4713 113.992 82.542 113.23 81.7593 112.331C80.9767 111.412 80.3212 110.376 79.793 109.223C79.2843 108.05 78.8734 106.799 78.5604 105.47C78.2473 104.141 78.0223 102.763 77.8853 101.336C77.7679 99.8899 77.7092 98.4336 77.7092 96.968C77.7092 95.2285 77.7973 93.4889 77.9733 91.7494C78.1494 90.0098 78.3843 88.3193 78.6777 86.677C78.9712 85.016 79.3136 83.4132 79.7049 81.8691C80.0963 80.3251 80.4974 78.8885 80.9082 77.5595Z"
              fill="white"/>
        <path d="M85.5792 56.1168C84.527 57.1679 84.0327 58.4659 84.0961 60.0108C84.0961 60.2134 84.0264 60.3843 83.887 60.5236C83.7601 60.6629 83.5954 60.7389 83.3926 60.7516C83.2024 60.7642 83.0312 60.7072 82.8791 60.5806C82.7397 60.4413 82.6637 60.2703 82.651 60.0678C82.5876 58.105 83.2277 56.4524 84.5714 55.1102C84.6982 54.9708 84.8693 54.9012 85.0848 54.9012C85.2877 54.9012 85.4524 54.9708 85.5792 55.1102C85.7187 55.2494 85.7884 55.4203 85.7884 55.623C85.7884 55.8129 85.7187 55.9776 85.5792 56.1168ZM82.3467 56.1168C81.2946 57.1679 80.8002 58.4659 80.8636 60.0108C80.8636 60.2134 80.7939 60.3843 80.6544 60.5236C80.5277 60.6629 80.3629 60.7389 80.16 60.7516C79.9699 60.7642 79.7988 60.7072 79.6467 60.5806C79.5073 60.4413 79.4312 60.2703 79.4185 60.0678C79.3551 58.105 79.9953 56.4524 81.339 55.1102C81.4657 54.9708 81.6369 54.9012 81.8523 54.9012C82.0552 54.9012 82.22 54.9708 82.3467 55.1102C82.4861 55.2494 82.5559 55.4203 82.5559 55.623C82.5559 55.8129 82.4861 55.9776 82.3467 56.1168ZM124.578 79.4044C124.845 79.7716 125.187 80.0692 125.605 80.2972C126.023 80.5124 126.537 80.6201 127.145 80.6201C127.766 80.6201 128.33 80.4744 128.837 80.1832C129.344 79.8792 129.807 79.4867 130.225 79.0055C130.644 78.5243 131.018 77.9861 131.347 77.3909C131.676 76.7958 131.974 76.2006 132.241 75.6054C132.305 75.4662 132.393 75.3648 132.507 75.3015C132.621 75.2256 132.748 75.1876 132.887 75.1876C133.103 75.1876 133.274 75.2635 133.401 75.4155C133.541 75.5675 133.61 75.732 133.61 75.9094C133.61 75.9727 133.604 76.0296 133.591 76.0803C133.579 76.1183 133.559 76.1627 133.534 76.2133C132.659 78.1381 131.702 79.588 130.663 80.5631C129.636 81.5381 128.47 82.0383 127.164 82.0636C126.327 82.0636 125.605 81.8991 124.996 81.5698C124.388 81.2532 123.887 80.8416 123.494 80.3351C123.102 79.816 122.81 79.2334 122.62 78.5876C122.429 77.9418 122.335 77.2959 122.335 76.6502C122.335 76.0043 122.411 75.4092 122.562 74.8646C122.727 74.3202 122.955 73.8452 123.247 73.4401C123.551 73.0348 123.906 72.7182 124.312 72.4903C124.73 72.2624 125.187 72.1484 125.681 72.1484C125.972 72.1484 126.258 72.2117 126.537 72.3383C126.828 72.4523 127.088 72.6232 127.316 72.8512C127.544 73.0665 127.728 73.3324 127.868 73.649C128.007 73.9656 128.077 74.3264 128.077 74.7317C128.077 75.2508 127.988 75.7384 127.81 76.1943C127.633 76.6502 127.386 77.0744 127.069 77.4669C126.765 77.8595 126.397 78.2204 125.966 78.5497C125.535 78.8789 125.072 79.1638 124.578 79.4044ZM124.007 78.1697C124.4 78.0051 124.756 77.7962 125.072 77.5429C125.402 77.2896 125.681 77.011 125.909 76.7071C126.137 76.4032 126.314 76.0866 126.441 75.7574C126.568 75.4155 126.632 75.0736 126.632 74.7317C126.632 74.3518 126.537 74.0669 126.346 73.877C126.156 73.6743 125.934 73.573 125.681 73.573C125.338 73.573 125.047 73.668 124.807 73.8579C124.565 74.0479 124.369 74.2948 124.217 74.5987C124.065 74.9027 123.951 75.2446 123.875 75.6245C123.811 75.9917 123.78 76.3589 123.78 76.7261C123.78 76.954 123.798 77.1946 123.836 77.4479C123.887 77.7012 123.944 77.9418 124.007 78.1697ZM134.37 74.4658C134.295 74.6683 134.199 74.8963 134.086 75.1495C133.984 75.4028 133.863 75.6688 133.724 75.9473C133.61 76.1627 133.49 76.3336 133.363 76.4602C133.248 76.5742 133.097 76.6312 132.906 76.6312C132.691 76.6312 132.52 76.5678 132.393 76.4412C132.266 76.3019 132.203 76.1436 132.203 75.9664C132.203 75.903 132.209 75.8524 132.222 75.8144C132.234 75.7637 132.266 75.6877 132.317 75.5864C132.647 74.9533 132.887 74.4025 133.039 73.9339C133.204 73.4527 133.337 72.9525 133.439 72.4333C133.35 72.142 133.287 71.8951 133.248 71.6926C133.21 71.4899 133.192 71.281 133.192 71.0657C133.192 70.6478 133.281 70.3122 133.458 70.059C133.635 69.7931 133.883 69.6601 134.199 69.6601C134.491 69.6601 134.719 69.7867 134.884 70.04C135.062 70.2932 135.15 70.6035 135.15 70.9707C135.15 71.1733 135.131 71.3759 135.093 71.5786C135.055 71.7812 135.004 72.0345 134.941 72.3383C135.233 73.0601 135.524 73.6996 135.815 74.2568C136.107 74.814 136.367 75.3269 136.595 75.7954C136.823 76.2513 137.007 76.6818 137.147 77.0871C137.298 77.4922 137.375 77.8975 137.375 78.3027C137.375 78.8346 137.267 79.3411 137.051 79.8222C136.836 80.3034 136.481 80.7087 135.987 81.0379C136.05 81.0506 136.113 81.0569 136.177 81.0569C136.24 81.0569 136.304 81.0569 136.367 81.0569C137.089 81.0569 137.755 80.8923 138.363 80.5631C138.972 80.2338 139.517 79.8096 139.999 79.2904C140.493 78.7586 140.93 78.176 141.311 77.5429C141.691 76.8971 142.021 76.2576 142.3 75.6245C142.426 75.3332 142.604 75.1876 142.832 75.1876C143.047 75.1876 143.213 75.2635 143.327 75.4155C143.453 75.5675 143.516 75.732 143.516 75.9094C143.516 76.0107 143.498 76.1057 143.46 76.1943C143.32 76.5362 143.136 76.9288 142.908 77.372C142.693 77.8025 142.426 78.2521 142.109 78.7206C141.806 79.1765 141.45 79.626 141.044 80.0692C140.639 80.5124 140.183 80.9113 139.676 81.2659C139.181 81.6078 138.636 81.88 138.04 82.0827C137.445 82.2979 136.791 82.4055 136.082 82.4055C135.233 82.4055 134.44 82.2536 133.705 81.9497C132.983 81.6585 132.393 81.1709 131.936 80.4871C131.861 80.3731 131.823 80.2529 131.823 80.1262C131.823 79.9362 131.892 79.7716 132.032 79.6323C132.183 79.4803 132.355 79.4044 132.545 79.4044C132.748 79.4044 132.919 79.4741 133.059 79.6134C133.072 79.6386 133.116 79.683 133.192 79.7463C133.268 79.797 133.357 79.8603 133.458 79.9362C133.572 79.9996 133.699 80.0566 133.839 80.1072C133.99 80.1578 134.142 80.1832 134.295 80.1832C134.599 80.1832 134.852 80.1198 135.055 79.9932C135.271 79.8666 135.442 79.7147 135.568 79.5373C135.695 79.3474 135.784 79.1511 135.835 78.9485C135.898 78.7333 135.93 78.5497 135.93 78.3977C135.93 78.0811 135.879 77.7645 135.778 77.4479C135.676 77.1314 135.543 76.8148 135.378 76.4982C135.226 76.1816 135.055 75.8587 134.865 75.5295C134.688 75.1876 134.523 74.833 134.37 74.4658ZM146.103 55.585C146.179 57.5225 145.545 59.175 144.201 60.5426C144.036 60.6819 143.865 60.7516 143.687 60.7516C143.485 60.7516 143.314 60.6819 143.174 60.5426C143.035 60.4033 142.965 60.2387 142.965 60.0487C142.965 59.8461 143.035 59.6752 143.174 59.5359C144.227 58.4596 144.727 57.1615 144.676 55.642C144.664 55.4394 144.721 55.2684 144.847 55.1291C144.987 54.9771 145.158 54.9012 145.361 54.9012C145.551 54.9012 145.716 54.9645 145.855 55.0911C146.008 55.2177 146.09 55.3824 146.103 55.585ZM149.335 55.585C149.411 57.5225 148.777 59.175 147.433 60.5426C147.268 60.6819 147.097 60.7516 146.92 60.7516C146.717 60.7516 146.546 60.6819 146.407 60.5426C146.268 60.4033 146.197 60.2387 146.197 60.0487C146.197 59.8461 146.268 59.6752 146.407 59.5359C147.459 58.4596 147.96 57.1615 147.909 55.642C147.897 55.4394 147.953 55.2684 148.08 55.1291C148.219 54.9771 148.391 54.9012 148.593 54.9012C148.784 54.9012 148.948 54.9645 149.088 55.0911C149.24 55.2177 149.322 55.3824 149.335 55.585Z"
              fill="white"/>
        <path d="M119.248 59.0437C119.411 59.0437 119.56 59.1073 119.699 59.2345C119.85 59.3501 119.925 59.5062 119.925 59.7027C119.925 59.9455 119.815 60.1306 119.595 60.2577C119.584 60.2692 119.422 60.3791 119.109 60.5872C118.809 60.7953 118.45 61.1191 118.033 61.5585C118.901 61.6625 119.786 61.7145 120.689 61.7145C121.568 61.7145 122.368 61.6567 123.085 61.5411C123.814 61.414 124.462 61.2463 125.029 61.0381C125.608 60.8185 126.106 60.5641 126.523 60.2751C126.951 59.986 127.304 59.668 127.582 59.3211C127.651 59.2402 127.732 59.1767 127.825 59.1305C127.917 59.0726 128.016 59.0437 128.12 59.0437C128.305 59.0437 128.455 59.1131 128.571 59.2518C128.698 59.3906 128.762 59.5409 128.762 59.7027C128.762 59.8646 128.722 59.9918 128.641 60.0843C128.363 60.4543 127.992 60.8185 127.529 61.1769C127.067 61.5237 126.505 61.8359 125.845 62.1134C125.186 62.3909 124.427 62.6163 123.571 62.7898C122.715 62.9516 121.76 63.0326 120.707 63.0326C120.105 63.0326 119.503 63.0095 118.901 62.9632C118.299 62.9054 117.697 62.8303 117.095 62.7378C116.829 63.1193 116.581 63.5471 116.349 64.0212C116.129 64.4952 115.95 65.0154 115.811 65.5821C115.568 66.5532 115.428 67.5823 115.394 68.6691C115.371 69.7559 115.348 70.8659 115.324 71.999C115.313 73.1204 115.261 74.242 115.168 75.3635C115.075 76.4735 114.856 77.5487 114.509 78.5893C114.242 79.3755 113.883 80.1039 113.432 80.7745C112.993 81.4451 112.448 82.029 111.8 82.5262C111.163 83.0118 110.429 83.3933 109.596 83.6708C108.774 83.9598 107.847 84.1044 106.818 84.1044C105.127 84.1044 103.6 83.7691 102.235 83.0985C100.868 82.4279 99.6823 81.3699 98.6749 79.9247C98.6402 79.8669 98.5945 79.786 98.5361 79.6819C98.4785 79.5779 98.4497 79.4738 98.4497 79.3697C98.4497 79.2079 98.5073 79.0518 98.6233 78.9015C98.7392 78.7511 98.9009 78.676 99.1092 78.676C99.2362 78.676 99.3521 78.7107 99.4563 78.7801C99.5604 78.8379 99.6417 78.913 99.6992 79.0055C100.544 80.3005 101.534 81.2601 102.668 81.8845C103.803 82.4972 105.18 82.8036 106.8 82.8036C107.657 82.8036 108.426 82.6996 109.11 82.4915C109.792 82.2718 110.394 81.9654 110.914 81.5723C111.447 81.1677 111.904 80.6762 112.287 80.0981C112.669 79.52 112.987 78.861 113.241 78.121C113.519 77.3117 113.693 76.3809 113.762 75.3288C113.843 74.2651 113.895 73.1609 113.918 72.0163C113.942 70.8601 113.982 69.7039 114.04 68.5477C114.109 67.3915 114.271 66.2988 114.526 65.2698C114.653 64.7265 114.821 64.2235 115.03 63.761C115.238 63.2985 115.458 62.8707 115.689 62.4777C114.138 62.1654 112.593 61.7724 111.053 61.2983C109.526 60.8127 108.027 60.3502 106.557 59.9108C105.099 59.4599 103.687 59.0726 102.321 58.7489C100.967 58.4252 99.6882 58.2633 98.4844 58.2633C97.3847 58.2633 96.3663 58.4193 95.4287 58.7315C94.5028 59.0437 93.6984 59.4831 93.0155 60.0496C92.3442 60.6161 91.8176 61.2983 91.4356 62.0961C91.0652 62.8939 90.8801 63.7784 90.8801 64.7496C90.8801 65.4549 91.0017 66.1023 91.2447 66.692C91.4993 67.2816 91.8465 67.7961 92.2863 68.2355C92.7262 68.6633 93.247 68.9986 93.8488 69.2414C94.4507 69.4842 95.1105 69.6056 95.8279 69.6056C96.5805 69.6056 97.2518 69.4958 97.8419 69.2761C98.4319 69.0449 98.9534 68.7615 99.4046 68.4263C99.8558 68.091 100.238 67.7268 100.55 67.3337C100.874 66.9405 101.135 66.5764 101.331 66.2411C101.54 65.8942 101.69 65.611 101.783 65.3913C101.887 65.16 101.939 65.0444 101.939 65.0444C101.986 64.9172 102.066 64.8132 102.182 64.7322C102.298 64.6513 102.425 64.6108 102.564 64.6108C102.761 64.6108 102.917 64.6802 103.033 64.8189C103.16 64.9461 103.223 65.0965 103.223 65.2698C103.223 65.3045 103.218 65.3393 103.207 65.3739C103.207 65.397 103.201 65.4259 103.189 65.4606C103.178 65.4838 103.114 65.6398 102.998 65.9289C102.882 66.2064 102.703 66.5475 102.46 66.9521C102.217 67.3452 101.905 67.773 101.523 68.2355C101.141 68.698 100.678 69.1315 100.134 69.5363C99.5892 69.9293 98.9585 70.2588 98.2415 70.5248C97.5354 70.7792 96.7253 70.9064 95.811 70.9064C94.9311 70.9064 94.1093 70.7503 93.3454 70.4381C92.593 70.1259 91.9333 69.6981 91.3662 69.1547C90.8107 68.6113 90.3708 67.9638 90.0467 67.2123C89.7343 66.4607 89.578 65.6398 89.578 64.7496C89.578 63.5703 89.8037 62.5066 90.2551 61.5585C90.7065 60.5988 91.3315 59.7779 92.1301 59.0957C92.9287 58.4136 93.872 57.8875 94.9599 57.5175C96.048 57.1475 97.2281 56.9626 98.5013 56.9626C99.4275 56.9626 100.36 57.0435 101.297 57.2053C102.235 57.3672 103.184 57.5811 104.144 57.847C105.116 58.1129 106.1 58.4078 107.096 58.7315C108.09 59.0553 109.098 59.3847 110.116 59.7201C111.146 60.0438 112.188 60.3502 113.241 60.6392C114.306 60.9283 115.389 61.1653 116.487 61.3504C116.777 60.9919 117.06 60.674 117.338 60.3964C117.628 60.119 117.883 59.8935 118.103 59.7201C118.334 59.5351 118.525 59.3963 118.675 59.3038C118.826 59.1998 118.913 59.142 118.936 59.1305C119.052 59.0726 119.156 59.0437 119.248 59.0437Z"
              fill="white"/>
        <path d="M65.313 49.4423C64.941 49.4423 64.6136 49.4126 64.3309 49.353C64.1076 49.799 63.8398 50.2153 63.5273 50.6018C63.2147 50.9734 62.8501 51.3005 62.4335 51.5829C62.0317 51.8653 61.5778 52.0883 61.0719 52.2519C60.5659 52.4153 60.0153 52.4971 59.4201 52.4971C58.7207 52.4971 58.0809 52.3708 57.5005 52.1181C56.9201 51.8802 56.4142 51.5457 55.9826 51.1146C55.5511 50.6687 55.2163 50.141 54.9781 49.5315C54.7401 48.9071 54.621 48.2233 54.621 47.48C54.621 46.5286 54.7921 45.7036 55.1344 45.0049C55.4767 44.2914 55.871 43.7042 56.3174 43.2433C56.7639 42.7677 57.2103 42.4183 57.6567 42.1954C58.1031 41.9575 58.4379 41.8386 58.6612 41.8386C58.9141 41.8386 59.1002 41.9055 59.2192 42.0393C59.3532 42.1731 59.4201 42.3514 59.4201 42.5744C59.4201 42.8271 59.3383 43.0204 59.1745 43.1542C59.0258 43.2731 58.8324 43.392 58.5942 43.5109C58.3562 43.6299 58.1031 43.8008 57.8353 44.0238C57.5674 44.2319 57.3145 44.4995 57.0763 44.8265C56.8532 45.1536 56.6671 45.5401 56.5184 45.9861C56.3695 46.432 56.2951 46.93 56.2951 47.48C56.2951 47.9706 56.3695 48.4314 56.5184 48.8625C56.6671 49.2787 56.8829 49.6429 57.1656 49.9552C57.4484 50.2524 57.7832 50.4903 58.1701 50.6687C58.5571 50.8322 58.9885 50.9139 59.4647 50.9139C60.313 50.9139 61.0123 50.7207 61.5629 50.3342C62.1284 49.9328 62.56 49.4274 62.8576 48.8179C61.9796 48.3571 61.2579 47.703 60.6924 46.8557C60.1269 46.0084 59.8443 45.057 59.8443 44.0015C59.8443 43.1542 60.0451 42.463 60.4469 41.9278C60.8636 41.3927 61.4067 41.125 62.0764 41.125C62.4782 41.125 62.8576 41.2217 63.2147 41.4149C63.5719 41.6081 63.8844 41.9129 64.1522 42.3292C64.435 42.7454 64.6582 43.2806 64.8219 43.9346C64.9856 44.5887 65.0674 45.3691 65.0674 46.2759C65.0674 46.7516 65.0079 47.2496 64.8888 47.7699C64.9781 47.7847 65.0674 47.7922 65.1568 47.7922C65.246 47.7922 65.3427 47.7922 65.4469 47.7922C65.9529 47.7922 66.4067 47.7327 66.8085 47.6138C67.2103 47.4949 67.5749 47.3165 67.9022 47.0787C68.2296 46.8408 68.5198 46.5361 68.7728 46.1644C69.0406 45.7928 69.2937 45.3617 69.5317 44.8711C69.5764 44.782 69.6731 44.7002 69.8219 44.6259C69.9707 44.5366 70.1196 44.4921 70.2683 44.4921C70.4618 44.4921 70.6404 44.5739 70.8041 44.7373C70.9826 44.886 71.0719 45.0867 71.0719 45.3394C71.0719 45.4583 71.0421 45.5921 70.9826 45.7408C70.9231 45.8746 70.8636 46.0009 70.8041 46.1198C70.551 46.5658 70.2535 46.9969 69.9112 47.4131C69.5838 47.8145 69.1894 48.1713 68.7281 48.4834C68.2818 48.7808 67.7758 49.0186 67.2103 49.197C66.6448 49.3754 66.0124 49.4571 65.313 49.4423ZM61.496 43.8231C61.496 44.1056 61.5332 44.4029 61.6076 44.7151C61.6821 45.0272 61.7936 45.3394 61.9425 45.6516C62.1061 45.9489 62.2996 46.2387 62.5228 46.5212C62.7609 46.7888 63.0362 47.0192 63.3487 47.2125C63.3933 46.9003 63.4156 46.5955 63.4156 46.2982C63.4156 45.8968 63.3859 45.488 63.3263 45.0718C63.2668 44.6556 63.1776 44.2765 63.0585 43.9346C62.9543 43.5778 62.8204 43.2954 62.6567 43.0873C62.4931 42.8643 62.2996 42.7529 62.0764 42.7529C61.9871 42.7529 61.868 42.8197 61.7192 42.9535C61.5704 43.0873 61.496 43.3771 61.496 43.8231ZM71.8308 42.7305C71.7713 43.1319 71.6969 43.5109 71.6076 43.8677C71.5183 44.2096 71.429 44.5144 71.3398 44.782C71.2654 45.0347 71.1984 45.2428 71.1389 45.4063C71.0794 45.5698 71.0421 45.659 71.0272 45.6739C70.8784 46.0158 70.618 46.1867 70.246 46.1867C70.0377 46.1867 69.8442 46.1124 69.6656 45.9637C69.4871 45.8003 69.3978 45.5996 69.3978 45.3617C69.3978 45.2725 69.4127 45.2056 69.4425 45.161C69.4722 45.1164 69.5168 45.0272 69.5764 44.8934C69.6359 44.7596 69.7103 44.5366 69.7996 44.2245C69.8889 43.9123 70.0004 43.4292 70.1344 42.7751C69.8814 42.7751 69.621 42.7676 69.3532 42.7529C69.0853 42.738 68.8397 42.686 68.6166 42.5967C68.3784 42.5075 68.185 42.3663 68.0362 42.1731C67.8873 41.9798 67.813 41.7122 67.813 41.3703C67.813 41.1176 67.8873 40.7757 68.0362 40.3446C68.1701 39.9135 68.3562 39.4899 68.5942 39.0736C68.8324 38.6574 69.1002 38.3006 69.3978 38.0033C69.6954 37.6911 69.993 37.535 70.2906 37.535C70.6329 37.535 70.9082 37.6614 71.1166 37.9141C71.3398 38.1668 71.5109 38.479 71.6299 38.8506C71.749 39.2074 71.8308 39.5865 71.8755 39.9878C71.935 40.3892 71.9647 40.7385 71.9647 41.0359C72.2178 41.0359 72.4633 41.0359 72.7014 41.0359C72.9544 41.021 73.1924 41.0135 73.4156 41.0135C74.2639 41.0135 74.9112 41.1993 75.3576 41.571C75.804 41.9426 76.0273 42.5521 76.0273 43.3995C76.0273 43.7414 76.0049 44.0982 75.9603 44.4697C75.9156 44.8414 75.8636 45.2279 75.804 45.6293C75.7445 46.0158 75.6925 46.4023 75.6478 46.7888C75.6031 47.1752 75.5808 47.5544 75.5808 47.926C75.5808 48.4612 75.6552 48.9071 75.804 49.2639C75.9529 49.6058 76.1389 49.8808 76.3621 50.0889C76.5853 50.2971 76.8234 50.4457 77.0763 50.5349C77.3294 50.6092 77.56 50.6463 77.7683 50.6463C78.4082 50.6463 79.0109 50.4382 79.5764 50.0221C80.1418 49.6058 80.6627 49.1078 81.1389 48.5281C81.6151 47.9334 82.0391 47.309 82.4112 46.655C82.7981 46.0009 83.1181 45.4286 83.371 44.938C83.4454 44.8042 83.5496 44.7002 83.6835 44.6259C83.8174 44.5515 83.9588 44.5144 84.1076 44.5144C84.3755 44.5144 84.5838 44.6035 84.7326 44.782C84.8815 44.9454 84.9559 45.1313 84.9559 45.3394C84.9559 45.488 84.9261 45.6218 84.8666 45.7408C84.5243 46.3503 84.1225 47.0415 83.6612 47.8145C83.2147 48.5726 82.7014 49.2861 82.121 49.9552C81.5407 50.6241 80.8859 51.1889 80.1567 51.6498C79.4425 52.1106 78.6537 52.341 77.7907 52.341C77.255 52.341 76.749 52.237 76.2728 52.0288C75.7966 51.8356 75.3799 51.5532 75.0228 51.1815C74.6806 50.795 74.4053 50.3268 74.1969 49.7767C73.9886 49.2118 73.8844 48.5801 73.8844 47.8814C73.8844 47.1381 73.9588 46.4023 74.1076 45.6739C74.2564 44.9306 74.3309 44.2245 74.3309 43.5556C74.3309 43.2731 74.2639 43.065 74.13 42.9312C74.0109 42.7825 73.7356 42.7082 73.3041 42.7082C73.0957 42.7082 72.865 42.7082 72.6121 42.7082C72.3739 42.7082 72.1135 42.7156 71.8308 42.7305ZM70.3353 41.0804C70.3353 40.9764 70.3279 40.8426 70.313 40.6791C70.313 40.5007 70.2981 40.3297 70.2683 40.1663C70.2535 40.0027 70.2237 39.8615 70.1791 39.7426C70.1493 39.6237 70.1121 39.5641 70.0674 39.5641C70.0228 39.5641 69.9633 39.6237 69.8889 39.7426C69.8294 39.8466 69.7624 39.9804 69.688 40.1439C69.6136 40.2926 69.5466 40.4561 69.4871 40.6345C69.4276 40.8129 69.3829 40.9615 69.3532 41.0804H70.3353ZM92.0318 45.4063C92.7609 48.8402 93.8174 50.5572 95.2014 50.5572C95.7373 50.5572 96.2503 50.364 96.7414 49.9774C97.2324 49.576 97.6861 49.0929 98.1035 48.5281C98.5344 47.9483 98.9145 47.3388 99.2412 46.6996C99.5689 46.0604 99.8364 45.5029 100.045 45.0272C100.194 44.6704 100.454 44.4921 100.826 44.4921C101.065 44.4921 101.265 44.5813 101.429 44.7596C101.593 44.938 101.674 45.1313 101.674 45.3394C101.674 45.4583 101.652 45.5624 101.607 45.6516C101.503 45.9043 101.347 46.2462 101.139 46.6773C100.945 47.0936 100.7 47.5469 100.402 48.0375C100.119 48.5132 99.8 49.0038 99.4427 49.5091C99.0855 50.0146 98.691 50.468 98.2592 50.8693C97.8275 51.2707 97.367 51.6052 96.8751 51.8727C96.3993 52.1255 95.8931 52.2519 95.3576 52.2519C94.3606 52.2519 93.5049 51.9099 92.7906 51.2261C92.0764 50.5274 91.4588 49.3828 90.938 47.7922C90.2237 49.3085 89.502 50.4085 88.7728 51.0923C88.0436 51.7762 87.255 52.1181 86.4067 52.1181C85.9603 52.1181 85.5287 52.0437 85.1121 51.8951C84.6954 51.7613 84.3309 51.5308 84.0183 51.2038C83.7058 50.8768 83.4529 50.4605 83.2594 49.9552C83.0659 49.4348 82.9692 48.8031 82.9692 48.0597C82.9692 47.0341 83.1478 46.0901 83.505 45.2279C83.8621 44.3657 84.3234 43.6299 84.8888 43.0204C85.4543 42.3961 86.0793 41.9129 86.7639 41.571C87.4633 41.2291 88.1552 41.0581 88.8397 41.0581C89.063 41.0581 89.2564 41.1399 89.4201 41.3034C89.5838 41.4521 89.6656 41.6453 89.6656 41.8832C89.6656 42.0913 89.5987 42.2772 89.4647 42.4406C89.3308 42.6042 89.1523 42.7008 88.929 42.7305C88.4826 42.79 88.0065 42.9312 87.5005 43.1542C86.9946 43.3771 86.5257 43.7042 86.0942 44.1353C85.6776 44.5515 85.3278 45.0867 85.0451 45.7408C84.7772 46.3949 84.6433 47.1752 84.6433 48.0821C84.6433 48.8253 84.7921 49.4051 85.0898 49.8214C85.4023 50.2375 85.8487 50.4457 86.4291 50.4457C86.6671 50.4457 86.9201 50.3862 87.188 50.2673C87.4559 50.1335 87.7386 49.8808 88.0362 49.5091C88.3487 49.1376 88.6835 48.6098 89.0406 47.926C89.4127 47.2421 89.8219 46.3428 90.2683 45.2279C90.0153 43.9197 89.7847 42.4109 89.5764 40.7014C89.3681 38.9919 89.2639 37.0816 89.2639 34.9707C89.2639 34.0491 89.2937 33.0903 89.3532 32.0943C89.4127 31.0834 89.5094 30.1023 89.6434 29.1509C89.7773 28.1847 89.9558 27.2704 90.1791 26.4082C90.4022 25.5461 90.6702 24.7879 90.9826 24.1339C91.31 23.4797 91.6895 22.9669 92.121 22.5952C92.5526 22.2088 93.0437 22.0155 93.5943 22.0155C94.0853 22.0155 94.5019 22.1493 94.8442 22.4169C95.1865 22.6845 95.4618 23.0561 95.6705 23.5318C95.8931 24.0074 96.0573 24.5798 96.1615 25.2487C96.2656 25.9177 96.3172 26.6535 96.3172 27.4563C96.3172 29.1806 96.1682 30.9051 95.8711 32.6295C95.5734 34.3538 95.2014 36.0039 94.7549 37.5797C94.3234 39.1553 93.8621 40.6122 93.371 41.95C92.8799 43.288 92.4335 44.4401 92.0318 45.4063ZM94.6433 27.434C94.6433 27.0623 94.6284 26.6609 94.5987 26.2299C94.5838 25.7988 94.5317 25.3974 94.4424 25.0257C94.368 24.6393 94.2639 24.3197 94.13 24.067C93.996 23.8142 93.8174 23.6879 93.5943 23.6879C93.2222 23.6879 92.8725 24.0149 92.5451 24.669C92.2327 25.3231 91.9574 26.1852 91.7192 27.2556C91.4812 28.311 91.2876 29.5151 91.1389 30.8678C91.005 32.2058 90.938 33.5585 90.938 34.9262C90.938 36.2343 90.9901 37.5425 91.0942 38.8506C91.1984 40.1588 91.3174 41.3258 91.4514 42.3514C91.8829 41.2068 92.2922 40.0325 92.679 38.8283C93.0659 37.6093 93.4007 36.3681 93.6835 35.1045C93.9811 33.841 94.2117 32.5699 94.3755 31.2915C94.554 29.9982 94.6433 28.7124 94.6433 27.434ZM117.322 45.6739C117.262 45.7928 117.136 46.0455 116.943 46.432C116.764 46.8037 116.525 47.2348 116.228 47.7253C115.946 48.2159 115.61 48.7288 115.223 49.2639C114.837 49.799 114.405 50.2896 113.929 50.7356C113.452 51.1815 112.939 51.5532 112.389 51.8505C111.838 52.1329 111.258 52.2741 110.648 52.2741C109.784 52.2741 109.055 51.9991 108.46 51.4491C107.88 50.8991 107.455 50.2078 107.188 49.3754C106.682 50.2227 106.079 50.8991 105.38 51.4045C104.68 51.8951 103.981 52.1403 103.282 52.1403C102.731 52.1403 102.233 52.0437 101.786 51.8505C101.34 51.6424 100.961 51.3599 100.647 51.0031C100.335 50.6315 100.09 50.2004 99.9109 49.7098C99.7475 49.2193 99.6654 48.6841 99.6654 48.1044C99.6654 46.9449 99.8592 45.9266 100.246 45.0495C100.647 44.1576 101.154 43.4143 101.764 42.8197C102.374 42.2251 103.044 41.7791 103.773 41.4818C104.517 41.1845 105.232 41.0359 105.916 41.0359C106.377 41.0359 106.801 41.1028 107.188 41.2365C107.575 41.3555 107.902 41.4892 108.17 41.6379C108.453 41.7866 108.669 41.9278 108.818 42.0616C108.967 42.1805 109.048 42.2474 109.063 42.2623C109.226 42.4555 109.309 42.6562 109.309 42.8643C109.309 43.0873 109.226 43.288 109.063 43.4664C108.9 43.6299 108.706 43.7116 108.482 43.7116C108.244 43.7116 108.044 43.6299 107.88 43.4664C107.85 43.4366 107.783 43.3846 107.679 43.3102C107.575 43.2211 107.433 43.1319 107.255 43.0427C107.076 42.9535 106.86 42.8792 106.608 42.8197C106.369 42.7454 106.094 42.7082 105.782 42.7082C105.32 42.7082 104.829 42.8123 104.309 43.0204C103.787 43.2285 103.312 43.5556 102.88 44.0015C102.448 44.4326 102.084 44.9827 101.786 45.6516C101.503 46.3056 101.362 47.0861 101.362 47.9928C101.362 48.2753 101.392 48.5652 101.452 48.8625C101.511 49.1449 101.615 49.4051 101.764 49.6429C101.913 49.8808 102.114 50.0741 102.367 50.2227C102.62 50.3713 102.932 50.4457 103.304 50.4457C103.572 50.4457 103.877 50.3565 104.219 50.1781C104.576 49.9997 104.912 49.7247 105.224 49.353C105.551 48.9814 105.841 48.5132 106.094 47.9483C106.362 47.3834 106.548 46.7144 106.652 45.9415C106.682 45.7334 106.779 45.5624 106.942 45.4286C107.106 45.2799 107.3 45.2056 107.523 45.2056C107.731 45.2056 107.91 45.2874 108.058 45.4509C108.222 45.6144 108.311 45.8003 108.327 46.0084C108.341 46.2907 108.371 46.6922 108.415 47.2125C108.46 47.7178 108.557 48.2233 108.706 48.7288C108.869 49.2341 109.108 49.6727 109.42 50.0443C109.733 50.416 110.164 50.6018 110.715 50.6018C111.072 50.6018 111.422 50.5051 111.764 50.3119C112.121 50.1186 112.464 49.8659 112.79 49.5537C113.133 49.2267 113.452 48.8625 113.75 48.4612C114.063 48.0449 114.346 47.6287 114.599 47.2125C114.852 46.7962 115.074 46.3949 115.268 46.0084C115.462 45.6218 115.626 45.2874 115.759 45.0049C115.834 44.8414 115.938 44.7151 116.072 44.6259C116.221 44.5366 116.377 44.4921 116.541 44.4921C116.794 44.4921 116.994 44.5887 117.143 44.782C117.307 44.9603 117.389 45.1536 117.389 45.3617C117.389 45.4658 117.367 45.5698 117.322 45.6739ZM120.737 49.8883C120.975 49.3977 121.25 48.8625 121.563 48.2827C121.876 47.6881 122.21 47.0936 122.567 46.4989C122.925 45.8894 123.296 45.2873 123.683 44.6928C124.085 44.0982 124.502 43.5332 124.934 42.9981C125.365 42.4778 125.797 42.1062 126.228 41.8832C126.675 41.6453 127.091 41.5264 127.478 41.5264C128.252 41.5264 128.825 41.8088 129.197 42.3737C129.569 42.9386 129.755 43.6373 129.755 44.4697C129.755 44.663 129.74 44.9009 129.711 45.1833C129.695 45.4509 129.673 45.7408 129.643 46.0529C129.629 46.3651 129.607 46.6848 129.576 47.0118C129.562 47.3239 129.554 47.6213 129.554 47.9037C129.554 48.2604 129.569 48.6023 129.599 48.9294C129.643 49.2565 129.717 49.5464 129.822 49.799C129.926 50.0369 130.075 50.2301 130.269 50.3788C130.462 50.5125 130.715 50.5794 131.027 50.5794C131.593 50.5794 132.144 50.364 132.679 49.9328C133.215 49.4868 133.706 48.9666 134.153 48.372C134.614 47.7625 135.008 47.1456 135.335 46.5212C135.677 45.8968 135.93 45.3915 136.095 45.0049C136.168 44.8414 136.273 44.7151 136.407 44.6259C136.555 44.5366 136.712 44.4921 136.875 44.4921C137.128 44.4921 137.33 44.5887 137.478 44.782C137.642 44.9603 137.723 45.1536 137.723 45.3617C137.723 45.4658 137.701 45.5698 137.656 45.6739C137.597 45.7928 137.478 46.0381 137.299 46.4097C137.121 46.7813 136.883 47.2125 136.586 47.703C136.303 48.1787 135.968 48.6915 135.581 49.2416C135.194 49.7767 134.762 50.2673 134.286 50.7132C133.825 51.1592 133.319 51.5308 132.768 51.8282C132.233 52.1255 131.667 52.2741 131.072 52.2741C130.402 52.2741 129.859 52.1478 129.442 51.8951C129.026 51.6275 128.698 51.2856 128.46 50.8693C128.222 50.4382 128.058 49.97 127.969 49.4646C127.895 48.9442 127.858 48.424 127.858 47.9037C127.858 47.6807 127.865 47.428 127.88 47.1456C127.91 46.8631 127.94 46.5658 127.969 46.2536C128.014 45.9415 128.044 45.6293 128.058 45.3171C128.089 45.0049 128.103 44.7076 128.103 44.4252C128.103 43.9495 128.029 43.6299 127.88 43.4664C127.731 43.288 127.597 43.1988 127.478 43.1988C127.24 43.1988 126.964 43.34 126.652 43.6225C126.355 43.89 126.035 44.2468 125.692 44.6928C125.365 45.1387 125.022 45.6441 124.666 46.2091C124.323 46.7591 123.996 47.309 123.683 47.8591C123.386 48.4091 123.103 48.9369 122.835 49.4423C122.583 49.9328 122.381 50.3416 122.233 50.6687C121.935 51.293 121.637 51.7093 121.34 51.9174C121.042 52.1403 120.737 52.2519 120.425 52.2519C119.993 52.2519 119.643 52.1255 119.376 51.8727C119.123 51.6052 118.996 51.2336 118.996 50.7579C118.996 50.6538 119.011 50.4531 119.041 50.1558C119.07 49.8436 119.107 49.4795 119.152 49.0632C119.197 48.6321 119.241 48.1713 119.286 47.6807C119.331 47.1901 119.376 46.707 119.42 46.2313C119.465 45.7408 119.502 45.2874 119.532 44.8711C119.561 44.4549 119.576 44.1056 119.576 43.8231C119.576 43.4515 119.561 43.0948 119.532 42.7529C119.502 42.4109 119.443 42.2028 119.353 42.1285C119.219 42.1731 118.981 42.4555 118.638 42.9758C118.296 43.4812 117.858 44.3806 117.322 45.6739C117.248 45.8374 117.136 45.9637 116.987 46.0529C116.838 46.1422 116.682 46.1867 116.519 46.1867C116.266 46.1867 116.064 46.105 115.916 45.9415C115.767 45.763 115.692 45.5624 115.692 45.3394C115.692 45.2353 115.714 45.1239 115.759 45.0049C116.429 43.4143 117.054 42.2474 117.634 41.5041C118.23 40.746 118.817 40.3669 119.398 40.3669C119.74 40.3669 120.03 40.4561 120.268 40.6345C120.506 40.798 120.692 41.021 120.826 41.3034C120.975 41.5859 121.079 41.898 121.139 42.2399C121.213 42.5819 121.25 42.9312 121.25 43.288C121.25 43.5556 121.228 43.9718 121.183 44.5366C121.154 45.1016 121.109 45.711 121.05 46.3651C120.99 47.0043 120.93 47.6436 120.871 48.2827C120.826 48.922 120.782 49.4571 120.737 49.8883Z"
              fill="white"/>
        <path d="M51.7904 21.1752C51.143 23.0483 50.5961 25.2 50.1497 27.6305C49.7033 30.0387 49.4801 32.6922 49.4801 35.591C49.4801 37.6424 49.5471 39.7161 49.681 41.8121C49.8149 43.9082 49.9265 46.1603 50.0158 48.5685C50.5515 48.2786 51.0202 48.1337 51.422 48.1337C51.7346 48.1337 52.0136 48.2452 52.2591 48.4682C52.5046 48.6689 52.6274 48.9365 52.6274 49.2709C52.6274 49.7615 52.4042 50.1294 51.9577 50.3746C51.5113 50.5976 50.8751 50.8875 50.0493 51.2443V54.1542C50.0493 59.2382 49.7479 63.8985 49.1453 68.1351C48.5649 72.3941 47.6162 76.051 46.2993 79.1059C44.9823 82.183 43.2413 84.5801 41.076 86.297C38.9332 88.014 36.3104 88.8724 33.2078 88.8724C31.8908 88.8724 30.5961 88.6161 29.3238 88.1028C28.0515 87.6123 26.9132 86.8546 25.9086 85.8288C24.9265 84.8031 24.123 83.5209 23.498 81.9823C22.8953 80.4661 22.5939 78.6822 22.5939 76.6308C22.5939 74.3786 23.0069 72.2269 23.8328 70.1754C24.6809 68.1463 25.7859 66.2398 27.1475 64.4559C28.5314 62.6498 30.1051 60.9886 31.8685 59.4724C33.6319 57.9337 35.4287 56.5401 37.2591 55.2914C39.1118 54.0428 40.931 52.9501 42.7167 52.0135C44.5024 51.077 46.0984 50.3077 47.5046 49.7057C47.46 47.409 47.3595 45.1123 47.2033 42.8156C47.0471 40.4966 46.9689 38.1218 46.9689 35.6914C46.9689 33.4169 47.1029 31.2317 47.3707 29.1356C47.6609 27.0173 48.0515 25.0439 48.5426 23.2155C47.672 23.706 46.7123 24.1631 45.6631 24.5868C44.6363 25.0105 43.5537 25.4119 42.4154 25.7909C41.2769 26.17 40.1051 26.5379 38.8997 26.8947C37.7167 27.2515 36.5448 27.5971 35.3841 27.9316C33.6207 28.4444 32.0136 29.013 30.5627 29.6374C29.1341 30.2394 27.9064 30.9418 26.8796 31.7446C25.8528 32.5473 25.0493 33.4615 24.469 34.4872C23.9109 35.5129 23.6319 36.6947 23.6319 38.0326C23.6319 39.5935 23.9332 40.9203 24.5359 42.0129C25.1386 43.1054 25.9198 43.9974 26.8796 44.6886C27.8618 45.3575 28.9556 45.8481 30.1609 46.1603C31.3886 46.4502 32.6051 46.5951 33.8104 46.5951C34.1676 46.5951 34.4578 46.7177 34.6809 46.9631C34.9265 47.2083 35.0493 47.5094 35.0493 47.8661C35.0493 48.2229 34.9154 48.5239 34.6475 48.7692C34.402 48.9922 34.123 49.1036 33.8104 49.1036C32.2926 49.1036 30.7747 48.8918 29.2569 48.4682C27.7613 48.0222 26.4109 47.3533 25.2056 46.4613C24.0001 45.5471 23.018 44.3987 22.2591 43.0163C21.5002 41.6338 21.1207 40.006 21.1207 38.133C21.1207 36.5052 21.4444 35.0558 22.0917 33.7849C22.7614 32.4916 23.6877 31.3432 24.8707 30.3397C26.0537 29.3363 27.4823 28.4556 29.1565 27.6974C30.8305 26.9392 32.6832 26.2703 34.7145 25.6906C36.1876 25.2669 37.6497 24.821 39.1006 24.3527C40.5515 23.8844 41.9243 23.405 43.2189 22.9145C44.5359 22.4016 45.7413 21.8776 46.835 21.3425C47.9288 20.785 48.8663 20.2052 49.6475 19.6032C50.5403 17.1058 51.5002 15.1881 52.5269 13.8503C53.5537 12.4901 54.5359 11.81 55.4734 11.81C55.6743 11.81 55.8864 11.8545 56.1095 11.9438C56.3551 12.0106 56.5783 12.1333 56.7792 12.3117C57.0024 12.4677 57.181 12.6907 57.3149 12.9806C57.4489 13.2705 57.5158 13.6272 57.5158 14.0509C57.5158 15.0321 57.0024 16.1469 55.9756 17.3957C54.9489 18.6443 53.5537 19.9042 51.7904 21.1752ZM47.5381 52.348C46.2434 52.9055 44.7926 53.6191 43.1854 54.4887C41.5783 55.3583 39.9377 56.3729 38.2636 57.5324C36.6118 58.6919 34.9935 59.974 33.4086 61.3789C31.8461 62.7836 30.4399 64.2888 29.1899 65.8942C27.9622 67.522 26.9689 69.2278 26.21 71.0116C25.4734 72.8178 25.1051 74.6797 25.1051 76.5974C25.1051 78.2251 25.3395 79.6522 25.8082 80.8786C26.277 82.105 26.902 83.1306 27.6832 83.9557C28.4867 84.7807 29.3908 85.3939 30.3952 85.7953C31.422 86.219 32.4712 86.4308 33.5426 86.4308C35.3953 86.4308 37.0247 85.996 38.4309 85.1264C39.8373 84.2791 41.0538 83.0861 42.0806 81.5475C43.1296 80.0312 44.0001 78.214 44.6921 76.0956C45.3841 73.9996 45.9421 71.6806 46.3663 69.1385C46.7903 66.6188 47.0917 63.9431 47.2702 61.1112C47.4489 58.257 47.5381 55.336 47.5381 52.348Z"
              fill="white"/>
    </g>
    <defs>
        <filter id="filter0_d_3_18" x="0" y="-9" width="182" height="159" filterUnits="userSpaceOnUse"
                color-interpolation-filters="sRGB">
            <feFlood flood-opacity="0" result="BackgroundImageFix"/>
            <feColorMatrix in="SourceAlpha" type="matrix" values="0 0 0 0 0 0 0 0 0 0 0 0 0 0 0 0 0 0 127 0"
                           result="hardAlpha"/>
            <feOffset/>
            <feGaussianBlur stdDeviation="5.5"/>
            <feColorMatrix type="matrix" values="0 0 0 0 1 0 0 0 0 1 0 0 0 0 1 0 0 0 0.05 0"/>
            <feBlend mode="normal" in2="BackgroundImageFix" result="effect1_dropShadow_3_18"/>
            <feBlend mode="normal" in="SourceGraphic" in2="effect1_dropShadow_3_18" result="shape"/>
        </filter>
    </defs>
</svg>
